<svg xmlns="http://www.w3.org/2000/svg" viewBox="0 0 512 512"><defs><linearGradient id="g" x1="0" y1="0" x2="1" y2="1"><stop stop-color="#ff3ea8"/><stop offset=".5" stop-color="#a66bff"/><stop offset="1" stop-color="#ffd36a"/></linearGradient></defs><rect width="512" height="512" rx="112" fill="#0b0715"/><path d="M255 403c-14-18-123-104-145-166-24-69 26-128 88-128 28 0 48 12 57 32 10-20 30-32 58-32 62 0 112 59 88 128-22 62-131 148-146 166z" fill="none" stroke="url(#g)" stroke-width="30"/><path d="M170 95c18-40 58-55 84-28 27-27 67-12 85 28" fill="none" stroke="#ffd36a" stroke-width="20" stroke-linecap="round"/><circle cx="255" cy="66" r="12" fill="#ffd36a"/><text x="256" y="468" text-anchor="middle" fill="#fff" font-family="Arial" font-size="34" font-weight="700">SECOND ROUND</text></svg>
